<svg width="512" height="56" xmlns="http://www.w3.org/2000/svg" xml:space="preserve" version="1.1">
 <g>
  <g xmlns="http://www.w3.org/2000/svg" id="svg_1">
   <path id="svg_2" fill="#757575" clip-rule="evenodd" fill-rule="evenodd" d="m40.62,1.79l0,7.14c0,0.47 -0.31,0.78 -0.78,0.78l-30.62,0l0,14.59l25.28,0c0.47,0 0.78,0.31 0.78,0.78l0,7.14c0,0.47 -0.31,0.78 -0.78,0.78l-25.28,0l0,21.57c0,0.46 -0.31,0.77 -0.77,0.77l-7.68,0c-0.46,0 -0.77,-0.31 -0.77,-0.77l0,-52.77c0,-0.47 0.31,-0.78 0.77,-0.78l39.07,0c0.47,-0.01 0.78,0.3 0.78,0.77" class="st0"/>
   <path id="svg_3" fill="#757575" clip-rule="evenodd" fill-rule="evenodd" d="m86.87,32.36c-2.83,-7.84 -5.97,-15.67 -9.19,-22.81l-1.82,0c-3.22,7.14 -6.4,14.98 -9.23,22.81l20.24,0zm16.24,22.97l-8.45,0c-0.46,0 -0.77,-0.23 -0.89,-0.7c-1.12,-4.46 -2.48,-9.15 -4.03,-13.89l-25.94,0c-1.55,4.73 -2.91,9.43 -3.99,13.89c-0.12,0.47 -0.43,0.7 -0.89,0.7l-8.14,0c-0.54,0 -0.85,-0.31 -0.7,-0.85c4.88,-17.3 12.33,-36.39 19.85,-52.45c0.35,-0.74 0.78,-1.01 1.51,-1.01l11.01,0c0.74,0 1.16,0.27 1.51,1.01c7.6,16.02 14.92,35.15 19.85,52.45c0.15,0.54 -0.16,0.85 -0.7,0.85z" class="st0"/>
   <path id="svg_4" fill="#757575" clip-rule="evenodd" fill-rule="evenodd" d="m116.99,28.64c0,-16.84 11.09,-28.63 26.9,-28.63l1.16,0c9.92,0 17.6,5.04 21.67,12.34c0.27,0.47 0.19,0.85 -0.27,1.09l-6.82,3.38c-0.47,0.23 -1.05,0.23 -1.36,-0.35c-2.87,-4.97 -7.17,-7.6 -13.53,-7.6l-1.16,0c-9.96,0 -16.82,7.91 -16.82,19.4c0,11.52 6.74,19.24 16.82,19.24l1.16,0c6.51,0 10.31,-2.21 13.22,-5.59c0.39,-0.43 0.81,-0.5 1.28,-0.27l7.02,3.41c0.27,0.15 0.39,0.35 0.39,0.54c0,0.2 -0.08,0.35 -0.23,0.58c-4.3,6.29 -12.06,10.17 -21.51,10.17l-1.16,0c-16.11,-0.01 -26.76,-11.07 -26.76,-27.71" class="st0"/>
   <path id="svg_5" fill="#757575" clip-rule="evenodd" fill-rule="evenodd" d="m228.47,47.41l0,7.14c0,0.47 -0.31,0.77 -0.78,0.77l-40.7,0c-0.46,0 -0.78,-0.31 -0.78,-0.77l0,-52.76c0,-0.47 0.31,-0.78 0.78,-0.78l40,0c0.47,0 0.78,0.31 0.78,0.78l0,7.14c0,0.47 -0.31,0.78 -0.78,0.78l-31.55,0l0,14.12l25.66,0c0.46,0 0.78,0.31 0.78,0.78l0,7.06c0,0.47 -0.31,0.78 -0.78,0.78l-25.66,0l0,14.2l32.25,0c0.47,-0.01 0.78,0.3 0.78,0.76" class="st0"/>
   <path id="svg_6" fill="#757575" clip-rule="evenodd" fill-rule="evenodd" d="m289.09,39.62c0,-5.04 -3.33,-7.33 -10.66,-7.33l-18.26,0l0,14.59l18.26,0c7.44,-0.01 10.66,-2.18 10.66,-7.26m-13.26,-30.15l-15.66,0l0,14.59l15.66,0c7.02,0 10.23,-2.29 10.23,-7.29c0.01,-5.01 -3.21,-7.3 -10.23,-7.3m22.72,30.96c0,9.51 -7.29,14.9 -20.16,14.9l-26.67,0c-0.46,0 -0.78,-0.31 -0.78,-0.78l0,-52.76c0,-0.47 0.31,-0.78 0.78,-0.78l24.3,0c12.52,0 19.34,4.97 19.34,14.04c0,5.98 -3.02,9.89 -9.15,11.72c8.62,1.83 12.34,6.99 12.34,13.66" class="st0"/>
   <path id="svg_7" fill="#757575" clip-rule="evenodd" fill-rule="evenodd" d="m343.86,47.49c11.12,0 18.14,-7.64 18.14,-19.32c0,-11.68 -7.02,-19.32 -18.14,-19.32l-1.16,0c-11.13,0 -18.14,7.64 -18.14,19.32c0,11.68 7.02,19.32 18.14,19.32l1.16,0zm-29.07,-19.32c0,-16.37 10.85,-28.17 27.91,-28.17l1.16,0c17.06,0 27.91,11.79 27.91,28.17c0,16.37 -10.85,28.17 -27.91,28.17l-1.16,0c-17.06,0 -27.91,-11.8 -27.91,-28.17z" class="st0"/>
   <path id="svg_8" fill="#757575" clip-rule="evenodd" fill-rule="evenodd" d="m416.58,47.49c11.12,0 18.14,-7.64 18.14,-19.32c0,-11.68 -7.02,-19.32 -18.14,-19.32l-1.16,0c-11.12,0 -18.14,7.64 -18.14,19.32c0,11.68 7.02,19.32 18.14,19.32l1.16,0zm-29.07,-19.32c0,-16.37 10.85,-28.17 27.91,-28.17l1.16,0c17.06,0 27.91,11.79 27.91,28.17c0,16.37 -10.85,28.17 -27.91,28.17l-1.16,0c-17.06,0 -27.91,-11.8 -27.91,-28.17z" class="st0"/>
   <path id="svg_9" fill="#757575" clip-rule="evenodd" fill-rule="evenodd" d="m511.36,55.33l-10,0c-0.66,0 -0.93,-0.15 -1.36,-0.66c-7.01,-8.26 -15.31,-16.49 -22.37,-22.54l-4.5,0l0,22.43c0,0.47 -0.31,0.77 -0.78,0.77l-7.67,0c-0.46,0 -0.77,-0.31 -0.77,-0.77l0,-52.76c0,-0.47 0.31,-0.78 0.77,-0.78l7.67,0c0.47,0 0.78,0.31 0.78,0.78l0,21.42l4.57,0c7.56,-6.83 14.54,-14.2 20.23,-21.61c0.39,-0.5 0.7,-0.58 1.16,-0.58l9.46,0c0.47,0 0.7,0.23 0.7,0.54c0,0.15 -0.08,0.35 -0.27,0.58c-8.33,10.28 -16.59,18.7 -24.23,25.22c9.61,8.15 18.72,17.23 27.02,27c0.44,0.49 0.21,0.96 -0.41,0.96" class="st0" style="&#10;"/>
  </g>
 </g>
</svg>