<svg width="365" height="76" xmlns="http://www.w3.org/2000/svg" xml:space="preserve" version="1.1">

 <g>
  <title>Layer 1</title>
  <g id="svg_1">
   <path id="svg_2" fill="#757575" d="m30.1,0c-16.4,0 -30.1,13.2 -30.1,29.5s13.7,29.4 30.1,29.4c8.9,0 15.4,-2.9 20.7,-8.3c5.4,-5.4 7,-12.8 7,-18.8c0,-1.9 -0.1,-3.6 -0.4,-5.1l-27.2,0l0,8l19.4,0c-0.6,4.5 -2,7.9 -4.4,10.2c-2.8,2.8 -7.3,6 -15,6c-11.9,0 -21.2,-9.6 -21.2,-21.4s9.3,-21.4 21.2,-21.4c6.4,0 11.2,2.5 14.6,5.8l5.7,-5.7c-4.9,-4.6 -11.4,-8.2 -20.4,-8.2zm49.4,21.1c-10.3,0 -18.9,8 -18.9,19.2c0,11.1 8.4,19.2 18.9,19.2s18.9,-8.1 18.9,-19.2s-8.6,-19.2 -18.9,-19.2m0,30.8c-5.7,0 -10.6,-4.8 -10.6,-11.6s4.9,-11.6 10.6,-11.6c5.7,0 10.6,4.7 10.6,11.6c0,6.8 -5,11.6 -10.6,11.6m41,-30.8c-10.5,0 -18.9,8 -18.9,19.2c0,11.1 8.4,19.2 18.9,19.2c10.3,0 18.9,-8.1 18.9,-19.2s-8.4,-19.2 -18.9,-19.2m0,30.8c-5.7,0 -10.6,-4.8 -10.6,-11.6s4.9,-11.6 10.6,-11.6c5.7,0 10.6,4.7 10.6,11.6c0,6.8 -4.8,11.6 -10.6,11.6m40.9,-30.8c-9.5,0 -18,8.3 -18,19.1c0,10.6 8.6,18.9 18,18.9c4.5,0 8,-2 9.9,-4.4l0.3,0l0,2.8c0,7.3 -3.8,11.2 -10,11.2c-5.1,0 -8.1,-3.6 -9.5,-6.7l-7.3,3.1c2,5.1 7.6,11.2 16.7,11.2c9.8,0 17.9,-5.8 17.9,-19.8l0,-34.1l-7.9,0l0,3.1l-0.3,0c-1.8,-2.4 -5.3,-4.4 -9.8,-4.4m0.7,30.5c-5.7,0 -10.5,-4.8 -10.5,-11.5s4.8,-11.6 10.5,-11.6c5.7,0 10,4.9 10,11.6s-4.3,11.5 -10,11.5m23.5,-49.3l8.3,0l0,56.2l-8.3,0l0,-56.2zm30.5,18.8c-9.9,0 -18.2,7.7 -18.2,19.2c0,10.8 8.1,19.2 19.1,19.2c8.9,0 14,-5.4 16,-8.4l-6.5,-4.4c-2.2,3.2 -5.2,5.2 -9.5,5.2c-4.4,0 -7.4,-1.9 -9.3,-5.8l25.8,-10.6l-0.9,-2.2c-1.6,-4.2 -6.6,-12.2 -16.5,-12.2m-9.9,18.6c-0.3,-7.4 5.8,-11.2 10,-11.2c3.3,0 6.3,1.6 7.1,4.1l-17.1,7.1z" class="st0"/>
   <path id="svg_3" fill="#757575" d="m248,57.6l19.2,-51.1l7.4,0l19.2,51.1l-7.3,0l-4.9,-13.8l-21.4,0l-4.9,13.8l-7.3,0zm14.4,-19.9l17,0l-8.3,-23l-0.3,0l-8.4,23z" class="st0"/>
   <path id="svg_4" fill="#757575" d="m300.5,53.4c-3.2,-3.6 -4.8,-8 -4.8,-13.2c0,-5.1 1.6,-9.5 4.8,-13.2c3.3,-3.6 7.1,-5.4 11.8,-5.4c2.6,0 4.9,0.6 7,1.6c2.2,1.2 3.8,2.5 4.9,4.4l0.3,0l-0.3,-4.8l0,-16.2l6.5,0l0,51.1l-6.2,0l0,-4.8l-0.3,0c-1.2,1.7 -2.8,3.2 -4.9,4.4c-2.2,1.2 -4.5,1.6 -7,1.6c-4.6,-0.1 -8.6,-1.9 -11.8,-5.5m20.7,-4.1c2.2,-2.3 3.2,-5.4 3.2,-9.2c0,-3.6 -1,-6.7 -3.2,-9c-2,-2.3 -4.7,-3.5 -7.9,-3.5s-5.8,1.2 -7.9,3.5c-2.2,2.3 -3.2,5.4 -3.2,9s1,6.7 3.2,9s4.8,3.5 7.9,3.5c3.2,0.2 5.8,-1 7.9,-3.3" class="st0"/>
   <path id="svg_5" fill="#757575" d="m361.1,55.6c-2.6,2 -6,3.2 -10,3.2c-3.5,0 -6.5,-0.9 -9.3,-2.8c-2.6,-1.9 -4.5,-4.2 -5.7,-7.3l5.8,-2.5c0.9,2 2,3.8 3.8,4.9c1.6,1.2 3.5,1.7 5.4,1.7c2,0 3.8,-0.4 5.2,-1.3c1.5,-0.9 2,-2 2,-3.2c0,-2.2 -1.7,-3.9 -5.1,-4.9l-6,-1.5c-6.8,-1.7 -10.2,-4.9 -10.2,-9.9c0,-3.2 1.3,-5.7 3.9,-7.7c2.6,-1.9 6,-2.9 9.9,-2.9c3.1,0 5.8,0.7 8.4,2.2c2.5,1.5 4.2,3.5 5.2,6l-5.8,2.5c-0.7,-1.5 -1.7,-2.6 -3.2,-3.5s-3.2,-1.3 -5.1,-1.3c-1.7,0 -3.2,0.4 -4.7,1.3c-1.3,0.9 -2,1.9 -2,3.2c0,2 1.9,3.5 5.7,4.2l5.2,1.3c7,1.7 10.3,5.2 10.3,10.5c0.3,3.1 -1.1,5.7 -3.7,7.8" class="st0"/>
  </g>
 </g>
</svg>